# xmcd
#
# Track frame offsets: 
#        182
#        20407
#        39382
#        65332
#        82132
#        98857
#        120532
#        144532
#        168457
#        187057
#        208207
#        226732
#        260407
#
# Disc length: 3677 seconds
#
# Revision: 0
# Processed by: cddbd v1.5PL3 Copyright (c) Steve Scherf et al.
# Submitted via: ExactAudioCopy v0.90b4
#
DISCID=b50e5b0d
DTITLE=Turning Blue - Night Time
DYEAR=1995
DGENRE=Blues
TTITLE0=Blues Band Blues
TTITLE1=Kansas City Woman
TTITLE2=Back Off
TTITLE3=Run On Love
TTITLE4=Lost My Mojo
TTITLE5=Night Time
TTITLE6=Down By The Jetty Blues
TTITLE7=Just Around The Corner
TTITLE8=Press Shop Blues
TTITLE9=Out Of Sight
TTITLE10=Stones On My Pathway
TTITLE11=Slow Train
TTITLE12=Fernee Dell
EXTD=
EXTT0=
EXTT1=
EXTT2=
EXTT3=
EXTT4=
EXTT5=
EXTT6=
EXTT7=
EXTT8=
EXTT9=
EXTT10=
EXTT11=
EXTT12=
PLAYORDER=
